<svg width="24" height="24" viewBox="0 0 24 24" fill="none" xmlns="http://www.w3.org/2000/svg">
<path fill-rule="evenodd" clip-rule="evenodd" d="M19.6417 16.1091C19.3951 16.2202 19.0562 16.314 18.4577 16.3749C18.4512 17.164 18.4341 17.8226 18.3891 18.3891C19.2471 18.321 19.8937 18.189 20.4626 17.9329C21.7995 17.3312 22.8698 16.2609 23.4715 14.924C24.0001 13.7495 24.0001 12.2433 24.0001 9.23077C24.0001 6.21827 24.0001 4.71203 23.4715 3.53752C22.8698 2.20063 21.7995 1.13029 20.4626 0.528601C19.2881 0 17.7818 0 14.7693 0C11.7568 0 10.2506 0 9.07608 0.528601C7.73918 1.13029 6.66884 2.20063 6.06716 3.53752C5.81114 4.10637 5.67912 4.75303 5.61104 5.61094C4.75308 5.67902 4.10639 5.81104 3.53752 6.06706C2.20063 6.66875 1.13029 7.73909 0.528601 9.07598C0 10.2505 0 11.7567 0 14.7692C0 17.7817 0 19.288 0.528601 20.4625C1.13029 21.7994 2.20063 22.8697 3.53752 23.4714C4.71203 24 6.21827 24 9.23077 24C12.2433 24 13.7495 24 14.924 23.4714C16.2609 22.8697 17.3312 21.7994 17.9329 20.4625C18.4615 19.288 18.4615 17.7817 18.4615 14.7692C18.4615 11.7567 18.4615 10.2505 17.9329 9.07598C17.3312 7.73909 16.2609 6.66875 14.924 6.06706C13.7495 5.53846 12.2433 5.53846 9.23077 5.53846C8.64074 5.53846 8.1085 5.53846 7.62521 5.54243C7.68605 4.94387 7.77993 4.60503 7.89096 4.35835C8.29208 3.46709 9.00564 2.75353 9.8969 2.3524C10.182 2.2241 10.5901 2.11869 11.3799 2.06071C12.1896 2.00126 13.2336 2 14.7693 2C16.3051 2 17.349 2.00126 18.1587 2.06071C18.9485 2.11869 19.3567 2.2241 19.6417 2.3524C20.533 2.75353 21.2466 3.46709 21.6477 4.35835C21.776 4.64342 21.8814 5.05156 21.9394 5.84135C21.9988 6.65107 22.0001 7.695 22.0001 9.23077C22.0001 10.7665 21.9988 11.8105 21.9394 12.6202C21.8814 13.41 21.776 13.8181 21.6477 14.1032C21.2466 14.9945 20.533 15.708 19.6417 16.1091ZM9.23077 22C7.695 22 6.65107 21.9987 5.84135 21.9393C5.05156 21.8813 4.64342 21.7759 4.35835 21.6476C3.46709 21.2465 2.75353 20.5329 2.3524 19.6417C2.2241 19.3566 2.11869 18.9484 2.06071 18.1587C2.00126 17.3489 2 16.305 2 14.7692C2 13.2335 2.00126 12.1895 2.06071 11.3798C2.11869 10.59 2.2241 10.1819 2.3524 9.89681C2.75353 9.00555 3.46709 8.29199 4.35835 7.89086C4.64342 7.76256 5.05156 7.65716 5.84135 7.59917C6.65107 7.53972 7.695 7.53846 9.23077 7.53846C10.7665 7.53846 11.8105 7.53972 12.6202 7.59917C13.41 7.65716 13.8181 7.76256 14.1032 7.89086C14.9945 8.29199 15.708 9.00555 16.1091 9.89681C16.2374 10.1819 16.3428 10.59 16.4008 11.3798C16.4603 12.1895 16.4615 13.2335 16.4615 14.7692C16.4615 16.305 16.4603 17.3489 16.4008 18.1587C16.3428 18.9484 16.2374 19.3566 16.1091 19.6417C15.708 20.5329 14.9945 21.2465 14.1032 21.6476C13.8181 21.7759 13.41 21.8813 12.6202 21.9393C11.8105 21.9987 10.7665 22 9.23077 22Z" fill="white"/>
</svg>
